<?xml version="1.0" standalone="no"?>
<!DOCTYPE svg PUBLIC "-//W3C//DTD SVG 20010904//EN"
 "http://www.w3.org/TR/2001/REC-SVG-20010904/DTD/svg10.dtd">
<svg version="1.0" xmlns="http://www.w3.org/2000/svg"
 width="600.000000pt" height="600.000000pt" viewBox="0 0 600.000000 600.000000"
 preserveAspectRatio="xMidYMid meet">
<metadata>
Created by potrace 1.14, written by Peter Selinger 2001-2017
</metadata>
<g transform="translate(0.000000,600.000000) scale(0.100000,-0.100000)"
fill="#000000" stroke="none">
<path d="M0 3000 l0 -3000 3000 0 3000 0 0 3000 0 3000 -3000 0 -3000 0 0
-3000z m3043 2463 c79 -38 163 -114 200 -181 60 -109 57 -42 57 -1527 l1
-1360 77 -45 c106 -62 263 -218 330 -329 95 -157 142 -326 142 -516 0 -275
-93 -500 -289 -696 -196 -196 -421 -289 -696 -289 -275 0 -500 93 -696 289
-196 196 -289 421 -289 696 0 190 47 359 142 516 67 111 224 267 330 329 l77
45 3 1390 3 1390 36 75 c55 113 138 189 254 232 39 14 72 18 150 16 89 -3 108
-7 168 -35z m1061 -1073 c22 -8 26 -16 26 -50 0 -34 -4 -42 -26 -50 -28 -11
-574 -14 -612 -3 -45 12 -49 95 -5 106 36 9 592 7 617 -3z m-183 -257 c16 -16
16 -70 0 -86 -8 -8 -69 -13 -199 -15 -221 -4 -249 0 -262 34 -12 30 2 71 27
77 10 3 109 5 220 4 143 -2 206 -6 214 -14z m183 -243 c22 -8 26 -16 26 -50 0
-34 -4 -42 -26 -50 -28 -11 -574 -14 -612 -3 -45 12 -49 95 -5 106 36 9 592 7
617 -3z m-183 -257 c16 -16 16 -70 0 -86 -8 -8 -69 -13 -199 -15 -221 -4 -249
0 -262 34 -12 30 2 71 27 77 10 3 109 5 220 4 143 -2 206 -6 214 -14z m183
-243 c22 -8 26 -16 26 -50 0 -34 -4 -42 -26 -50 -28 -11 -574 -14 -612 -3 -45
12 -49 95 -5 106 36 9 592 7 617 -3z m-183 -257 c16 -16 16 -70 0 -86 -8 -8
-69 -13 -199 -15 -221 -4 -249 0 -262 34 -12 30 2 71 27 77 10 3 109 5 220 4
143 -2 206 -6 214 -14z m183 -243 c22 -8 26 -16 26 -50 0 -34 -4 -42 -26 -50
-28 -11 -574 -14 -612 -3 -45 12 -49 95 -5 106 36 9 592 7 617 -3z"/>
<path d="M2748 5406 c-121 -46 -209 -152 -237 -284 -8 -38 -11 -445 -11 -1417
l0 -1365 -42 -21 c-245 -125 -427 -363 -482 -631 -20 -99 -20 -267 0 -366 48
-234 186 -438 385 -572 303 -202 705 -202 1008 0 356 239 495 688 339 1094
-74 191 -245 378 -435 475 l-43 21 0 1366 c0 1214 -2 1373 -16 1428 -31 121
-94 202 -200 256 -40 20 -66 25 -139 27 -58 2 -103 -2 -127 -11z m231 -122
c32 -16 64 -43 82 -67 62 -86 59 -1 60 -1601 l0 -1461 72 -35 c107 -52 238
-186 295 -300 53 -108 74 -200 73 -320 -1 -385 -306 -690 -691 -691 -272 -1
-501 138 -627 382 -52 100 -73 191 -73 311 0 123 21 214 72 317 57 116 188
249 295 301 l72 35 0 1461 c1 1602 -2 1515 61 1601 67 91 202 120 309 67z"/>
</g>
</svg>
